<svg width="26" height="26" viewBox="0 0 26 26" fill="none" xmlns="http://www.w3.org/2000/svg">
<path d="M2.70837 8.869C2.82111 6.59431 3.15836 5.17608 4.16723 4.1672C5.17612 3.15832 6.59435 2.82107 8.86904 2.70834M23.2917 8.869C23.1789 6.59431 22.8417 5.17608 21.8329 4.1672C20.824 3.15832 19.4057 2.82107 17.131 2.70834M17.131 23.2917C19.4057 23.1789 20.824 22.8417 21.8329 21.8329C22.8417 20.8239 23.1789 19.4056 23.2917 17.131M8.86903 23.2917C6.59434 23.1789 5.17612 22.8417 4.16723 21.8329C3.15836 20.8239 2.82111 19.4056 2.70837 17.131" stroke="#141B34" stroke-width="1.5" stroke-linecap="round" stroke-linejoin="round"/>
<path d="M18.9583 18.4167L18.7392 17.497C18.5582 16.7372 17.9821 16.1335 17.2316 15.9173L14.625 15.166L14.6246 13.5761C15.5961 12.9205 16.2496 11.6951 16.2496 10.2917C16.2496 8.19758 14.7945 6.5 12.9996 6.5C11.2047 6.5 9.74959 8.19758 9.74959 10.2917C9.74959 11.6951 10.4032 12.9205 11.3746 13.5761L11.375 15.166L8.78455 15.9244C8.05722 16.1373 7.49399 16.7148 7.29932 17.4472L7.04163 18.4167" stroke="#141B34" stroke-width="1.5" stroke-linecap="round" stroke-linejoin="round"/>
</svg>
