<svg width="26" height="26" viewBox="0 0 26 26" fill="none" xmlns="http://www.w3.org/2000/svg">
<path d="M18.4167 8.12501C18.9491 8.67285 20.3665 10.8333 21.125 10.8333M21.125 10.8333C21.8836 10.8333 23.3009 8.67285 23.8334 8.12501M21.125 10.8333V2.16667" stroke="#141B34" stroke-width="1.5" stroke-linecap="round" stroke-linejoin="round"/>
<path d="M22.7499 14.0833C22.7479 18.5759 22.6928 20.8762 21.2429 22.3262C19.7356 23.8333 17.3098 23.8333 12.4584 23.8333C7.60682 23.8333 5.18105 23.8333 3.67386 22.3262C2.16669 20.819 2.16669 18.3932 2.16669 13.5417C2.16669 8.69013 2.16669 6.26436 3.67386 4.75718C5.18105 3.25 7.60682 3.25 12.4584 3.25C12.6424 3.25 15.1667 3.25009 15.1667 3.25009" stroke="#141B34" stroke-width="1.5" stroke-linecap="round"/>
<path d="M2.16669 15.3133C2.83729 15.2159 3.51526 15.1678 4.19437 15.1696C7.06731 15.1088 9.86988 16.004 12.102 17.6954C14.1722 19.2639 15.6268 21.4228 16.25 23.8333" stroke="#141B34" stroke-width="1.5" stroke-linejoin="round"/>
<path d="M22.75 18.3042C21.4767 17.6593 20.1595 17.3321 18.8351 17.3335C16.829 17.3256 14.8433 18.0628 13 19.5" stroke="#141B34" stroke-width="1.5" stroke-linejoin="round"/>
</svg>
