<svg width="20" height="22" viewBox="0 0 20 22" fill="none" xmlns="http://www.w3.org/2000/svg">
<path d="M11.163 4.83564C11.2055 4.80862 11.2602 4.81038 11.3009 4.84006L13.545 6.4762C13.5732 6.49676 13.5974 6.52238 13.6162 6.55175L13.6579 6.61666C13.7414 6.74657 13.9523 6.70935 14.0356 6.57932C14.0651 6.53316 14.0479 6.52249 14.0379 6.46859C13.9837 6.17578 13.8042 5.24529 13.7428 4.9849C13.1084 2.10425 12.5304 2.10425 9.79555 2.10425C7.0466 2.10425 6.48272 2.10425 5.84835 4.9849C5.7758 5.31772 5.62031 6.16655 5.55972 6.45796C5.54715 6.5184 5.52582 6.53265 5.55856 6.58499C5.63679 6.71003 5.84369 6.74881 5.92024 6.62273L5.95214 6.5702C5.9934 6.50225 6.06366 6.4571 6.14261 6.44782L6.14439 6.44761C6.17258 6.44761 8.93563 6.04462 11.163 4.83564Z" fill="#0E0E0E"/>
<path d="M9.78414 15.5965C10.4945 15.6097 11.976 14.3282 12.3102 14.0307C12.3543 13.9914 12.3782 13.9359 12.3782 13.8769C12.3782 13.7046 12.1825 13.6055 12.0428 13.7065C11.2229 14.2999 10.4926 14.7755 9.78414 14.7755C9.77004 14.7755 9.77004 14.7755 9.75594 14.7755C9.03222 14.7755 8.29745 14.2844 7.45389 13.6644C7.31537 13.5626 7.11963 13.6609 7.11963 13.8328C7.11963 13.8914 7.1432 13.9464 7.18688 13.9854C7.52284 14.2855 9.03185 15.5965 9.75594 15.5965C9.77004 15.5965 9.78414 15.5965 9.78414 15.5965Z" fill="#0E0E0E"/>
<path d="M18.9747 17.6712C18.2752 16.6931 16.7727 15.8327 13.727 14.6982C13.4138 14.5816 13.082 14.8145 13.082 15.1487C13.082 17.298 11.4045 18.4175 9.75512 18.4175C8.10575 18.4175 6.42818 17.2831 6.42818 15.1487C6.42818 14.822 6.10367 14.5944 5.79767 14.7089C2.79701 15.8319 1.30582 16.6926 0.606056 17.6712C-0.471468 19.3824 1.74511 21.3727 3.76736 21.3727H15.8133C17.8356 21.3727 20.0522 19.3824 18.9747 17.6712Z" fill="#0E0E0E"/>
<path d="M16.2599 7.26622C16.2656 7.24814 16.2685 7.22906 16.2683 7.21011C16.2627 6.66308 16.0964 6.41343 15.9302 6.14936C15.7751 5.92548 15.6059 5.65682 15.5918 5.26875C15.3945 1.56719 13.6605 0 9.79788 0C5.21631 0 4.17312 2.10452 4.00395 5.25382C3.98985 5.65682 3.80659 5.91055 3.65152 6.13444C3.46826 6.4031 3.28499 6.65683 3.31319 7.28371C3.42597 9.2539 4.07443 9.74644 4.2718 9.85092C4.44096 9.94047 4.58193 9.92555 4.65242 9.88077C4.78519 9.79643 4.71106 9.60168 4.6366 9.46311C4.45422 9.12368 4.33214 8.68646 4.28589 8.2091C4.25977 7.89559 4.26323 7.60487 4.29462 7.34398C4.40236 6.44864 4.97616 5.61125 5.17401 4.73143C5.90707 1.44779 6.86567 1.29853 9.78379 1.29853C12.716 1.29853 13.6746 1.44779 14.3936 4.73143C14.589 5.61098 15.1644 6.44976 15.2724 7.34428C15.3043 7.60855 15.308 7.90404 15.2817 8.22403C15.2253 8.83598 15.042 9.35837 14.7742 9.71659C14.6614 9.86585 14.5204 10.0002 14.3654 10.1345C13.4754 10.9175 12.8529 11.3229 11.398 11.4451C11.0294 11.4761 10.6753 11.2241 10.3054 11.2241C9.93886 11.2241 9.62872 11.5375 9.62872 11.9405C9.62872 12.3286 9.92476 12.6569 10.3054 12.6569C10.8638 12.6569 11.3686 12.0699 11.9211 11.9886C13.2687 11.7905 13.9343 11.299 14.8306 10.5226C15.183 10.2091 15.4508 10.0002 15.7046 9.62704C16.0543 9.1235 16.168 8.07623 16.2524 7.30179C16.2537 7.28967 16.2562 7.27785 16.2599 7.26622Z" fill="#0E0E0E"/>
</svg>
