<svg width="31" height="36" viewBox="0 0 31 36" fill="none" xmlns="http://www.w3.org/2000/svg">
<g clip-path="url(#clip0_147_43)">
<path d="M23.2031 13.6433V0.969238L25.1516 0.96929V6.0389V12.1225L24.6459 16.1781L21.6119 20.7408L18.5183 22.2378C14.81 22.9138 7.54644 23.8601 14.019 22.2378C20.4915 20.6155 22.866 16.1781 23.2031 13.6433Z" fill="#C4C4C4"/>
<path d="M15.4685 4.83643L16.7708 8.84449H20.9851L17.5756 11.3216L18.8779 15.3297L15.4685 12.8526L12.059 15.3297L13.3613 11.3216L9.95184 8.84449H14.1662L15.4685 4.83643Z" fill="#A1F4C0"/>
<path fill-rule="evenodd" clip-rule="evenodd" d="M10.8882 33.6639H20.0475L19.5184 31.7174H11.4173L10.8882 33.6639ZM20.7091 30.8208L21.5862 34.0514C21.6345 34.1476 21.6608 34.2558 21.6608 34.371C21.6608 34.762 21.3514 35.0781 20.9701 35.0781C20.9667 35.0788 20.9612 35.0788 20.9563 35.0781H9.97935C9.76318 35.0781 9.55945 34.9749 9.42961 34.7981C9.29839 34.6227 9.25626 34.3943 9.31358 34.1815L10.2266 30.8208C10.3102 30.5154 10.5823 30.3032 10.8924 30.3032H13.3959V25.8466C13.3959 25.4563 13.7046 25.1395 14.0866 25.1395C14.4685 25.1395 14.7772 25.4563 14.7772 25.8466V30.3032H16.1585V25.8466C16.1585 25.4563 16.4672 25.1395 16.8491 25.1395C17.231 25.1395 17.5397 25.4563 17.5397 25.8466V30.3032H20.0433C20.3534 30.3032 20.6255 30.5154 20.7091 30.8208ZM29.3418 11.9107C29.989 9.42185 29.0773 6.92236 27.3521 6.45216C27.1587 6.39983 26.9578 6.37226 26.7561 6.37226C26.6097 6.37226 26.4639 6.39983 26.3182 6.42741V12.0394C26.3182 13.3107 26.1331 14.5347 25.7982 15.6858C27.312 15.5324 28.8059 13.9712 29.3418 11.9107ZM24.937 12.0394V1.88094C24.937 1.6667 24.7664 1.49276 24.5571 1.49276H6.37817C6.1689 1.49276 5.99901 1.6667 5.99901 1.88094V5.40993V7.0666V12.0394C5.99901 13.2188 6.18134 14.3494 6.50386 15.4086C6.64268 15.8668 6.81051 16.3087 7.00181 16.7358C8.55643 20.1976 11.7624 22.5861 15.4676 22.5861C20.6895 22.5861 24.937 17.8551 24.937 12.0394ZM1.59413 11.9107C2.13006 13.9719 3.62391 15.5331 5.13778 15.6858C4.80283 14.5354 4.61773 13.3107 4.61773 12.0394V6.42741C4.47201 6.40054 4.3256 6.37226 4.17987 6.37226C3.97751 6.37226 3.77654 6.39983 3.58316 6.45216C1.85795 6.92236 0.947002 9.42185 1.59413 11.9107ZM27.7078 5.08539C30.2024 5.76559 31.5318 8.98418 30.6768 12.2749C29.9289 15.1505 27.7596 17.1296 25.5592 17.1296C25.4667 17.1296 25.3734 17.1183 25.2802 17.1113C23.5439 21.1748 19.8041 24.0003 15.4676 24.0003C11.1318 24.0003 7.39202 21.1748 5.65576 17.1113C5.56253 17.1183 5.46998 17.1296 5.37674 17.1296C3.17569 17.1296 1.00709 15.1505 0.259818 12.2749C-0.596571 8.98418 0.733595 5.76559 3.22817 5.08539C3.54379 4.99983 3.86149 4.95811 4.17918 4.95811C4.3256 4.95811 4.47201 4.96872 4.61773 4.98569V1.88094C4.61773 0.887503 5.40782 0.0786133 6.37817 0.0786133H24.5571C25.5288 0.0786133 26.3182 0.887503 26.3182 1.88094V4.99347C26.4639 4.97579 26.6097 4.95811 26.7561 4.95811C27.0738 4.95811 27.3929 4.99983 27.7078 5.08539ZM17.3771 11.3124L19.2681 9.85939L16.8888 9.81131C16.6001 9.80495 16.346 9.61687 16.2507 9.33828L15.4668 7.05373L14.6829 9.33828C14.5876 9.61687 14.3335 9.80495 14.0448 9.81131L11.6649 9.85939L13.5565 11.3124C13.7892 11.4913 13.8866 11.7996 13.8017 12.0845L13.1138 14.3903L15.0752 13.0066C15.3114 12.8411 15.6229 12.8411 15.8591 13.0066L17.8205 14.3896L17.1312 12.0853C17.0463 11.7996 17.1437 11.4913 17.3771 11.3124ZM20.3897 8.46858C20.8192 8.47919 21.1936 8.76484 21.3255 9.17919C21.4553 9.59777 21.3144 10.0538 20.976 10.3162L18.594 12.1461L19.458 15.0359C19.5823 15.4516 19.4352 15.9063 19.092 16.1651C18.7397 16.4253 18.2687 16.4238 17.9262 16.1806L15.4668 14.4483L13.0054 16.1834C12.8403 16.3008 12.6421 16.3644 12.4363 16.3644C12.2229 16.3644 12.0185 16.2966 11.8451 16.1679C11.4977 15.9063 11.3513 15.4523 11.4763 15.0359L12.3396 12.1461L9.96105 10.319C9.61849 10.0538 9.47691 9.59636 9.60814 9.1799C9.73936 8.76484 10.1137 8.47919 10.5398 8.46858L13.5379 8.40707L14.5199 5.54696C14.6601 5.13615 15.0407 4.85969 15.4668 4.85969C15.8915 4.85969 16.2714 5.13474 16.413 5.54484L17.3951 8.40707L20.3897 8.46858Z" fill="#62646A"/>
</g>
<defs>
<clipPath id="clip0_147_43">
<rect width="31" height="36" fill="white"/>
</clipPath>
</defs>
</svg>
