<svg width="39" height="35" viewBox="0 0 39 35" fill="none" xmlns="http://www.w3.org/2000/svg">
<g clip-path="url(#clip0_147_32)">
<path d="M5 1H3V34H5V1Z" fill="#C4C4C4"/>
<path d="M38 1H36V34H38V1Z" fill="#C4C4C4"/>
<path d="M21 22C22.1046 22 23 21.1046 23 20C23 18.8954 22.1046 18 21 18C19.8954 18 19 18.8954 19 20C19 21.1046 19.8954 22 21 22Z" fill="#A1F4C0"/>
<path d="M18 7C19.1046 7 20 6.10457 20 5C20 3.89543 19.1046 3 18 3C16.8954 3 16 3.89543 16 5C16 6.10457 16.8954 7 18 7Z" fill="#A1F4C0"/>
<path d="M26 7C27.1046 7 28 6.10457 28 5C28 3.89543 27.1046 3 26 3C24.8954 3 24 3.89543 24 5C24 6.10457 24.8954 7 26 7Z" fill="#A1F4C0"/>
<path fill-rule="evenodd" clip-rule="evenodd" d="M37.243 31.0654V32.0371C37.243 32.7924 36.6379 33.4069 35.8889 33.4069C35.1444 33.4069 34.5394 32.7924 34.5394 32.0371V31.0654L34.54 2.96293C34.54 2.20764 35.1451 1.59318 35.8941 1.59318C36.6386 1.59318 37.2436 2.20764 37.2436 2.96293L37.243 31.0654ZM29.9583 26.1025C29.6048 24.6889 28.3513 23.6359 26.8511 23.6359C25.3508 23.6359 24.0979 24.6889 23.7445 26.1025H19.8522C19.4989 24.6889 18.2459 23.6359 16.7457 23.6359C15.2456 23.6359 13.992 24.6889 13.6386 26.1025H5.84084V20.3035H9.64929C10.0004 21.7202 11.2552 22.7763 12.7577 22.7763C14.2601 22.7763 15.5155 21.7202 15.8668 20.3035H17.7028C18.0539 21.7202 19.3087 22.7763 20.8112 22.7763C22.3136 22.7763 23.5685 21.7202 23.9195 20.3035H32.9715V26.1025H29.9583ZM26.8511 28.5746C25.9428 28.5746 25.2044 27.824 25.2044 26.9014C25.2044 25.9788 25.9428 25.2291 26.8511 25.2291C27.7594 25.2291 28.4986 25.9788 28.4986 26.9014C28.4986 27.824 27.7594 28.5746 26.8511 28.5746ZM16.7457 28.5746C15.8374 28.5746 15.0983 27.824 15.0983 26.9014C15.0983 25.9788 15.8374 25.2291 16.7457 25.2291C17.6541 25.2291 18.3925 25.9788 18.3925 26.9014C18.3925 27.824 17.6541 28.5746 16.7457 28.5746ZM14.4052 19.5107C14.4052 20.4333 13.666 21.1833 12.7577 21.1833C11.8493 21.1833 11.1109 20.4333 11.1109 19.5107C11.1109 18.5882 11.8493 17.8376 12.7577 17.8376C13.666 17.8376 14.4052 18.5882 14.4052 19.5107ZM22.4579 19.5107C22.4579 20.4333 21.7195 21.1833 20.8112 21.1833C19.9028 21.1833 19.1645 20.4333 19.1645 19.5107C19.1645 18.5882 19.9028 17.8376 20.8112 17.8376C21.7195 17.8376 22.4579 18.5882 22.4579 19.5107ZM5.84084 12.9159H32.9715V18.7103H23.9172C23.5633 17.2974 22.3109 16.2445 20.8112 16.2445C19.3114 16.2445 18.059 17.2974 17.7051 18.7103H15.8644C15.5104 17.2974 14.2574 16.2445 12.7577 16.2445C11.258 16.2445 10.0055 17.2974 9.65166 18.7103H5.84084V12.9159ZM5.84084 5.52768H15.2855C15.6393 6.94101 16.8925 7.99424 18.3925 7.99424C19.8924 7.99424 21.1451 6.94101 21.4986 5.52768H22.7691C23.1229 6.94101 24.3761 7.99424 25.8761 7.99424C27.376 7.99424 28.6288 6.94101 28.9823 5.52768H32.9715V11.3228H5.84084V5.52768ZM18.3925 3.05553C19.3008 3.05553 20.0392 3.8054 20.0392 4.7279C20.0392 5.65058 19.3008 6.40117 18.3925 6.40117C17.4841 6.40117 16.7449 5.65058 16.7449 4.7279C16.7449 3.8054 17.4841 3.05553 18.3925 3.05553ZM25.8761 3.05553C26.7844 3.05553 27.5228 3.8054 27.5228 4.7279C27.5228 5.65058 26.7844 6.40117 25.8761 6.40117C24.9677 6.40117 24.2286 5.65058 24.2286 4.7279C24.2286 3.8054 24.9677 3.05553 25.8761 3.05553ZM4.27213 31.0654V32.0371C4.27213 32.7924 3.66707 33.4069 2.91808 33.4069C2.17354 33.4069 1.56854 32.7924 1.56854 32.0371V31.0654V2.96293C1.56854 2.20764 2.1736 1.59318 2.92347 1.59318C3.66719 1.59318 4.27225 2.20764 4.27225 2.96293L4.27213 31.0654ZM35.8888 0C34.2803 0 32.9715 1.3294 32.9715 2.96293V3.93461H28.9842C28.6328 2.51809 27.3782 1.4624 25.8761 1.4624C24.374 1.4624 23.1188 2.51809 22.7673 3.93461H21.5006C21.1492 2.51809 19.8947 1.4624 18.3925 1.4624C16.8903 1.4624 15.6351 2.51809 15.2836 3.93461H5.84084V2.96293C5.84084 1.3294 4.53191 0 2.91808 0C1.30893 0 0 1.3294 0 2.96293V31.0654V32.0371C0 33.6706 1.30887 35 2.92341 35C4.53179 35 5.84072 33.6706 5.84072 32.0371V31.0654L5.84084 27.6956H13.6371C13.9889 29.1118 15.2438 30.1677 16.7457 30.1677C18.2476 30.1677 19.5021 29.1118 19.8537 27.6956H23.7432C24.0947 29.1118 25.3491 30.1677 26.8511 30.1677C28.353 30.1677 29.6079 29.1118 29.9597 27.6956H32.9715V31.0654L32.9708 32.0371C32.9708 33.6706 34.2797 35 35.8942 35C37.5027 35 38.8115 33.6706 38.8115 32.0371V31.0654L38.8122 2.96293C38.8122 1.3294 37.5033 0 35.8888 0Z" fill="#62646A"/>
</g>
<defs>
<clipPath id="clip0_147_32">
<rect width="39" height="35" fill="white"/>
</clipPath>
</defs>
</svg>
