<svg width="181" height="180" viewBox="0 0 181 180" fill="none" xmlns="http://www.w3.org/2000/svg">
<ellipse opacity="0.1" cx="90.5" cy="174.599" rx="90" ry="5.4" fill="#7C7B91"/>
<path fill-rule="evenodd" clip-rule="evenodd" d="M140.281 29.869C140.321 27.2503 142.476 25.1598 145.095 25.1998C147.714 25.2398 149.804 27.3952 149.764 30.014L149.615 39.7685C149.575 42.3873 147.419 44.4778 144.801 44.4378C142.182 44.3978 140.091 42.2424 140.132 39.6236L140.281 29.869ZM145.04 28.7994C144.409 28.7897 143.89 29.2933 143.88 29.924L143.731 39.6786C143.721 40.3094 144.225 40.8286 144.856 40.8382C145.487 40.8478 146.006 40.3443 146.015 39.7135L146.164 29.959C146.174 29.3282 145.671 28.809 145.04 28.7994ZM150.3 49.5724C150.34 46.9536 152.496 44.8631 155.114 44.9032L164.869 45.0523C167.488 45.0923 169.578 47.2477 169.538 49.8664C169.498 52.4852 167.343 54.5757 164.724 54.5357L154.969 54.3866C152.351 54.3466 150.26 52.1912 150.3 49.5724ZM155.059 48.5028C154.428 48.4931 153.909 48.9967 153.9 49.6274C153.89 50.2582 154.394 50.7774 155.024 50.787L164.779 50.9361C165.41 50.9457 165.929 50.4422 165.938 49.8114C165.948 49.1806 165.445 48.6615 164.814 48.6518L155.059 48.5028ZM40.4546 57.1735C41.8836 51.6003 46.9063 47.703 52.6597 47.703H133.745C139.498 47.703 144.521 51.6003 145.95 57.1735L154.697 91.2872C155.119 92.935 155.204 94.6513 154.945 96.3326L149.864 129.363C148.918 135.509 143.629 140.047 137.41 140.047H61.6317C57.8703 149.232 48.8416 155.703 38.3015 155.703C24.384 155.703 13.1016 144.421 13.1016 130.503C13.1016 118.462 21.5474 108.393 32.8384 105.897L31.4341 96.2788C31.1931 94.6278 31.2823 92.9452 31.6968 91.3289L40.4546 57.1735ZM36.4002 105.374C37.0279 105.327 37.6619 105.303 38.3015 105.303C52.2191 105.303 63.5015 116.586 63.5015 130.503C63.5015 132.551 63.2574 134.541 62.7966 136.447H137.41C141.852 136.447 145.63 133.206 146.306 128.815L151.387 95.7852L151.398 95.7156L151.403 95.6738H124.562L116.953 106.326C114.588 109.637 110.769 111.602 106.7 111.602H80.8396C76.7704 111.602 72.9518 109.637 70.5866 106.326L62.9781 95.6738H34.9844L34.9964 95.7587L36.4002 105.374ZM142.463 58.0676L151.182 92.0738H139.372V90.9372V90.8345V81.3589V79.458V68.0796C139.372 63.109 135.343 59.0796 130.372 59.0796H56.0291C51.0585 59.0796 47.0291 63.109 47.0291 68.0796V79.458V81.3589V90.8345V90.9372V92.0738H35.2222L43.9417 58.0676C44.9625 54.0868 48.5501 51.303 52.6597 51.303H133.745C137.854 51.303 141.442 54.0868 142.463 58.0676ZM135.772 72.2573C134.268 71.1274 132.399 70.4579 130.372 70.4579H56.0291C54.003 70.4579 52.1333 71.1274 50.6291 72.2573V68.0796C50.6291 65.0973 53.0467 62.6796 56.0291 62.6796H130.372C133.355 62.6796 135.772 65.0973 135.772 68.0796V72.2573ZM50.6291 92.0738H63.9044C64.4857 92.0738 65.0312 92.3545 65.3691 92.8276L73.516 104.233C75.2054 106.598 77.9331 108.002 80.8396 108.002H106.7C109.607 108.002 112.334 106.598 114.024 104.233L122.171 92.8276C122.509 92.3545 123.054 92.0738 123.636 92.0738H135.772V91.1077L135.41 89.2133C135.364 88.973 135.309 88.7365 135.245 88.504C134.375 86.6884 132.52 85.4345 130.372 85.4345H56.0291C53.5445 85.4345 51.4519 87.1125 50.8225 89.397C50.7925 89.5744 50.7677 89.7537 50.7481 89.9348L50.6291 91.0344V92.0738ZM16.7016 130.503C16.7016 118.574 26.3722 108.903 38.3015 108.903C50.2309 108.903 59.9015 118.574 59.9015 130.503C59.9015 142.433 50.2309 152.103 38.3015 152.103C26.3722 152.103 16.7016 142.433 16.7016 130.503ZM33.8016 118.803C33.8016 116.318 35.8163 114.303 38.3015 114.303C40.7868 114.303 42.8015 116.318 42.8015 118.803V129.603C42.8015 132.089 40.7868 134.103 38.3015 134.103C35.8163 134.103 33.8016 132.089 33.8016 129.603V118.803ZM38.3015 117.903C37.8045 117.903 37.4015 118.306 37.4015 118.803V129.603C37.4015 130.1 37.8045 130.503 38.3015 130.503C38.7986 130.503 39.2015 130.1 39.2015 129.603V118.803C39.2015 118.306 38.7986 117.903 38.3015 117.903ZM38.3015 146.703C35.8163 146.703 33.8016 144.689 33.8016 142.203C33.8016 139.718 35.8163 137.703 38.3015 137.703C40.7868 137.703 42.8015 139.718 42.8015 142.203C42.8015 144.689 40.7868 146.703 38.3015 146.703ZM37.4015 142.203C37.4015 142.7 37.8045 143.103 38.3015 143.103C38.7986 143.103 39.2015 142.7 39.2015 142.203C39.2015 141.706 38.7986 141.303 38.3015 141.303C37.8045 141.303 37.4015 141.706 37.4015 142.203Z" fill="#7C7B91"/>
</svg>
