<svg width="120" height="120" viewBox="0 0 120 120" fill="none" xmlns="http://www.w3.org/2000/svg">
<rect width="120" height="120" fill="#5A5A5A"/>
<g id="Profile and Account">
<path d="M-8397 -1654.96C-8397 -1685.79 -8397 -1701.21 -8391.09 -1713.03C-8385.67 -1723.88 -8376.88 -1732.67 -8366.03 -1738.09C-8354.21 -1744 -8338.79 -1744 -8307.96 -1744H1596.96C1627.79 -1744 1643.21 -1744 1655.03 -1738.09C1665.88 -1732.67 1674.67 -1723.88 1680.09 -1713.03C1686 -1701.21 1686 -1685.79 1686 -1654.96V5068.96C1686 5099.79 1686 5115.21 1680.09 5127.03C1674.67 5137.88 1665.88 5146.67 1655.03 5152.09C1643.21 5158 1627.79 5158 1596.96 5158H-8307.96C-8338.79 5158 -8354.21 5158 -8366.03 5152.09C-8376.88 5146.67 -8385.67 5137.88 -8391.09 5127.03C-8397 5115.21 -8397 5099.79 -8397 5068.96V-1654.96Z" fill="white" fill-opacity="0.2"/>
<path d="M-8397 -1654.96C-8397 -1685.79 -8397 -1701.21 -8391.09 -1713.03C-8385.67 -1723.88 -8376.88 -1732.67 -8366.03 -1738.09C-8354.21 -1744 -8338.79 -1744 -8307.96 -1744H1596.96C1627.79 -1744 1643.21 -1744 1655.03 -1738.09C1665.88 -1732.67 1674.67 -1723.88 1680.09 -1713.03C1686 -1701.21 1686 -1685.79 1686 -1654.96V5068.96C1686 5099.79 1686 5115.21 1680.09 5127.03C1674.67 5137.88 1665.88 5146.67 1655.03 5152.09C1643.21 5158 1627.79 5158 1596.96 5158H-8307.96C-8338.79 5158 -8354.21 5158 -8366.03 5152.09C-8376.88 5146.67 -8385.67 5137.88 -8391.09 5127.03C-8397 5115.21 -8397 5099.79 -8397 5068.96V-1654.96Z" fill="#0E3733" fill-opacity="0.1"/>
<path d="M-8366.03 5152.09L-8365.58 5151.2L-8366.03 5152.09ZM-8391.09 5127.03L-8391.99 5127.48L-8391.09 5127.03ZM1680.09 5127.03L1679.2 5126.58L1680.09 5127.03ZM1655.03 5152.09L1654.58 5151.2L1655.03 5152.09ZM1655.03 -1738.09L1654.58 -1737.2L1655.03 -1738.09ZM1680.09 -1713.03L1680.99 -1713.48L1680.09 -1713.03ZM-8391.09 -1713.03L-8391.99 -1713.48L-8391.09 -1713.03ZM-8307.96 -1743H1596.96V-1745H-8307.96V-1743ZM1685 -1654.96V5068.96H1687V-1654.96H1685ZM1596.96 5157H-8307.96V5159H1596.96V5157ZM-8396 5068.96V-1654.96H-8398V5068.96H-8396ZM-8307.96 5157C-8323.39 5157 -8334.91 5157 -8344.05 5156.27C-8353.17 5155.53 -8359.84 5154.07 -8365.58 5151.2L-8366.48 5152.99C-8360.41 5156.02 -8353.45 5157.52 -8344.21 5158.26C-8334.97 5159 -8323.36 5159 -8307.96 5159V5157ZM-8398 5068.96C-8398 5084.36 -8398 5095.97 -8397.26 5105.21C-8396.52 5114.45 -8395.02 5121.41 -8391.99 5127.48L-8390.2 5126.58C-8393.07 5120.84 -8394.53 5114.17 -8395.27 5105.05C-8396 5095.91 -8396 5084.39 -8396 5068.96H-8398ZM-8365.58 5151.2C-8376.24 5145.88 -8384.88 5137.24 -8390.2 5126.58L-8391.99 5127.48C-8386.47 5138.52 -8377.52 5147.47 -8366.48 5152.99L-8365.58 5151.2ZM1685 5068.96C1685 5084.39 1685 5095.91 1684.26 5105.05C1683.53 5114.17 1682.07 5120.84 1679.2 5126.58L1680.99 5127.48C1684.02 5121.41 1685.52 5114.45 1686.26 5105.21C1687 5095.97 1687 5084.36 1687 5068.96H1685ZM1596.96 5159C1612.36 5159 1623.97 5159 1633.21 5158.26C1642.45 5157.52 1649.41 5156.02 1655.48 5152.99L1654.58 5151.2C1648.84 5154.07 1642.17 5155.53 1633.05 5156.27C1623.91 5157 1612.39 5157 1596.96 5157V5159ZM1679.2 5126.58C1673.88 5137.24 1665.24 5145.88 1654.58 5151.2L1655.48 5152.99C1666.52 5147.47 1675.47 5138.52 1680.99 5127.48L1679.2 5126.58ZM1596.96 -1743C1612.39 -1743 1623.91 -1743 1633.05 -1742.27C1642.17 -1741.53 1648.84 -1740.07 1654.58 -1737.2L1655.48 -1738.99C1649.41 -1742.02 1642.45 -1743.52 1633.21 -1744.26C1623.97 -1745 1612.36 -1745 1596.96 -1745V-1743ZM1687 -1654.96C1687 -1670.36 1687 -1681.97 1686.26 -1691.21C1685.52 -1700.45 1684.02 -1707.41 1680.99 -1713.48L1679.2 -1712.58C1682.07 -1706.84 1683.53 -1700.17 1684.26 -1691.05C1685 -1681.91 1685 -1670.39 1685 -1654.96H1687ZM1654.58 -1737.2C1665.24 -1731.88 1673.88 -1723.24 1679.2 -1712.58L1680.99 -1713.48C1675.47 -1724.52 1666.52 -1733.47 1655.48 -1738.99L1654.58 -1737.2ZM-8307.96 -1745C-8323.36 -1745 -8334.97 -1745 -8344.21 -1744.26C-8353.45 -1743.52 -8360.41 -1742.02 -8366.48 -1738.99L-8365.58 -1737.2C-8359.84 -1740.07 -8353.17 -1741.53 -8344.05 -1742.27C-8334.91 -1743 -8323.39 -1743 -8307.96 -1743V-1745ZM-8396 -1654.96C-8396 -1670.39 -8396 -1681.91 -8395.27 -1691.05C-8394.53 -1700.17 -8393.07 -1706.84 -8390.2 -1712.58L-8391.99 -1713.48C-8395.02 -1707.41 -8396.52 -1700.45 -8397.26 -1691.21C-8398 -1681.97 -8398 -1670.36 -8398 -1654.96H-8396ZM-8366.48 -1738.99C-8377.52 -1733.47 -8386.47 -1724.52 -8391.99 -1713.48L-8390.2 -1712.58C-8384.88 -1723.24 -8376.24 -1731.88 -8365.58 -1737.2L-8366.48 -1738.99Z" fill="white" fill-opacity="0.1"/>
<g id="Delete Account" filter="url(#filter0_d_0_1)">
<rect x="-340" y="-190" width="800" height="474" rx="8" fill="white" shape-rendering="crispEdges"/>
<g id="Frame 6121">
<g id="Frame 6120">
<g id="Sad face" filter="url(#filter1_i_0_1)">
<rect width="120" height="120" rx="60" fill="url(#paint0_linear_0_1)"/>
<g id="left-eye">
<path d="M40.7168 75C49.0011 75 55.7168 68.2843 55.7168 60C53.5739 77.1429 28.9311 77.1429 25.7168 60C25.7168 68.2843 32.4325 75 40.7168 75Z" fill="#E9E9E9"/>
<path fill-rule="evenodd" clip-rule="evenodd" d="M40.7168 45C49.0011 45 55.7168 51.7157 55.7168 60C53.5739 77.1429 28.9311 77.1429 25.7168 60C25.7168 51.7157 32.4325 45 40.7168 45ZM30.0025 57.8571C30.8597 45 39.6454 45.3571 43.9311 47.1429C48.2168 48.8571 45.0027 55.0509 41.7882 57.8571C38.321 60.8841 30.0025 62.1429 30.0025 57.8571Z" fill="#151515"/>
<path d="M43.9311 47.1429C39.6454 45.3571 30.8597 45 30.0025 57.8571C30.0025 62.1429 38.321 60.8841 41.7882 57.8571C45.0027 55.0509 48.2168 48.8571 43.9311 47.1429Z" fill="white"/>
<path d="M42.8597 61.0714C41.0417 60.314 36.4311 61.0714 35.3597 64.2857C34.8928 65.6863 40.3154 65.5578 42.8597 64.2857C45.0025 63.2143 44.6776 61.8289 42.8597 61.0714Z" fill="white"/>
</g>
<g id="right-eye">
<path d="M79.2832 75C87.5675 75 94.2832 68.2843 94.2832 60C92.1403 77.1429 67.4975 77.1429 64.2832 60C64.2832 68.2843 70.9989 75 79.2832 75Z" fill="#E9E9E9"/>
<path fill-rule="evenodd" clip-rule="evenodd" d="M79.2832 45C87.5675 45 94.2832 51.7157 94.2832 60C92.1403 77.1429 67.4975 77.1429 64.2832 60C64.2832 51.7157 70.9989 45 79.2832 45ZM68.5689 57.8571C69.4261 45 78.2118 45.3571 82.4975 47.1429C86.7832 48.8571 83.5691 55.0509 80.3546 57.8571C76.8874 60.8841 68.5689 62.1429 68.5689 57.8571Z" fill="#151515"/>
<path d="M82.4975 47.1429C78.2118 45.3571 69.4261 45 68.5689 57.8571C68.5689 62.1429 76.8874 60.8841 80.3546 57.8571C83.5691 55.0509 86.7832 48.8571 82.4975 47.1429Z" fill="white"/>
<path d="M81.4261 61.0714C79.6081 60.314 74.9975 61.0714 73.9261 64.2857C73.4592 65.6863 78.8818 65.5578 81.4261 64.2857C83.5689 63.2143 83.244 61.8289 81.4261 61.0714Z" fill="white"/>
</g>
<path id="Mouth" d="M61.2655 88.4399C49.1796 88.4399 46.8455 100.182 49.18 99.015C52.2011 97.5042 55.2225 95.9935 59.7548 95.9935C65.6505 95.9935 68.2161 96.2295 71.8405 99.0149C74.0014 100.676 73.4115 88.4399 61.2655 88.4399Z" fill="#391C01" stroke="#FFCF2F" stroke-width="0.88125"/>
<path id="left browns" d="M39.6451 28.9284C39.6451 28.9284 25.3594 41.7856 20.3594 43.9284C36.4308 46.0713 39.6451 36.4284 40.7165 34.2856C42.8665 29.0624 41.8963 25.934 39.6451 28.9284Z" fill="#7E4505"/>
<path id="right-browns" d="M79.4155 29.0229C79.4155 29.0229 93.7012 41.8801 98.7012 44.0229C82.6297 46.1658 79.4155 36.5229 78.344 34.3801C76.194 29.1568 77.1643 26.0284 79.4155 29.0229Z" fill="#7E4505"/>
<g id="Vector 117">
<path fill-rule="evenodd" clip-rule="evenodd" d="M97.7166 65.3571C75.2715 64.3812 89.7206 34.7362 97.7166 23.5714C97.4008 24.6765 96.7887 26.2946 96.0622 28.2154C93.0775 36.1059 88.1601 49.1056 93.9064 52.6529C94.8621 53.2429 96.9702 50.3571 98.5739 50.3571C100.687 50.3571 101.407 53.1477 102.55 52.3978C108.199 48.6927 103.251 37.0231 99.9069 29.1359C98.9505 26.88 98.1252 24.9335 97.7166 23.5714C97.9193 23.9463 98.1586 24.3827 98.4279 24.8739C103.812 34.693 121.185 66.3775 97.7166 65.3571Z" fill="url(#paint1_linear_0_1)"/>
<path d="M97.7166 23.5714C97.4008 24.6765 96.7887 26.2946 96.0622 28.2154C93.0775 36.1059 88.1601 49.1056 93.9064 52.6529C94.8621 53.2429 96.9702 50.3571 98.5739 50.3571C100.687 50.3571 101.407 53.1477 102.55 52.3978C108.199 48.6927 103.251 37.0231 99.9069 29.1359C98.9505 26.88 98.1252 24.9335 97.7166 23.5714Z" fill="url(#paint2_linear_0_1)"/>
</g>
</g>
</g>
</g>
</g>
</g>
<defs>
<filter id="filter0_d_0_1" x="-349.6" y="-203.6" width="819.2" height="493.2" filterUnits="userSpaceOnUse" color-interpolation-filters="sRGB">
<feFlood flood-opacity="0" result="BackgroundImageFix"/>
<feColorMatrix in="SourceAlpha" type="matrix" values="0 0 0 0 0 0 0 0 0 0 0 0 0 0 0 0 0 0 127 0" result="hardAlpha"/>
<feOffset dy="-4"/>
<feGaussianBlur stdDeviation="4.8"/>
<feComposite in2="hardAlpha" operator="out"/>
<feColorMatrix type="matrix" values="0 0 0 0 0 0 0 0 0 0 0 0 0 0 0 0 0 0 0.1 0"/>
<feBlend mode="normal" in2="BackgroundImageFix" result="effect1_dropShadow_0_1"/>
<feBlend mode="normal" in="SourceGraphic" in2="effect1_dropShadow_0_1" result="shape"/>
</filter>
<filter id="filter1_i_0_1" x="0" y="0" width="120" height="126.25" filterUnits="userSpaceOnUse" color-interpolation-filters="sRGB">
<feFlood flood-opacity="0" result="BackgroundImageFix"/>
<feBlend mode="normal" in="SourceGraphic" in2="BackgroundImageFix" result="shape"/>
<feColorMatrix in="SourceAlpha" type="matrix" values="0 0 0 0 0 0 0 0 0 0 0 0 0 0 0 0 0 0 127 0" result="hardAlpha"/>
<feOffset dy="6.25"/>
<feGaussianBlur stdDeviation="5.7"/>
<feComposite in2="hardAlpha" operator="arithmetic" k2="-1" k3="1"/>
<feColorMatrix type="matrix" values="0 0 0 0 0.963477 0 0 0 0 0.593623 0 0 0 0 0.0388435 0 0 0 0.8 0"/>
<feBlend mode="normal" in2="shape" result="effect1_innerShadow_0_1"/>
</filter>
<linearGradient id="paint0_linear_0_1" x1="60" y1="0" x2="60" y2="120" gradientUnits="userSpaceOnUse">
<stop stop-color="#FFFAAB"/>
<stop offset="1" stop-color="#FDAD16"/>
</linearGradient>
<linearGradient id="paint1_linear_0_1" x1="97.6969" y1="23.5714" x2="97.6969" y2="65.3812" gradientUnits="userSpaceOnUse">
<stop offset="0.3" stop-color="#08A1F7"/>
<stop offset="1" stop-color="#B4E3FD"/>
</linearGradient>
<linearGradient id="paint2_linear_0_1" x1="97.6969" y1="23.5714" x2="97.6969" y2="65.3812" gradientUnits="userSpaceOnUse">
<stop offset="0.195474" stop-color="#D1F8FF"/>
<stop offset="1" stop-color="#08A1F7"/>
</linearGradient>
</defs>
</svg>
