<svg width="738" height="203" viewBox="0 0 738 203" fill="none" xmlns="http://www.w3.org/2000/svg">
<path d="M205.028 142.814C63.4462 136.217 34.6568 219.002 -11.174 199.882C-13.2388 108.488 -38.92 -71.2924 -35.4558 -76.7998C-31.9916 -82.3073 461.285 -71.7926 735.512 -71.3262L736.103 17.7921C678.124 73.0211 724.376 87.4945 513.841 84.7456C365.106 82.8037 363.506 150.198 205.028 142.814Z" fill="white" fill-opacity="0.04"/>
<path d="M107.834 107.005C-33.7475 100.409 -62.537 183.194 -108.368 164.074C-110.433 72.6803 -136.114 -107.101 -132.65 -112.608C-129.185 -118.115 364.091 -107.601 638.318 -107.134L638.909 -18.016C580.93 37.213 627.182 51.6864 416.647 48.9375C267.912 46.9956 266.313 114.39 107.834 107.005Z" fill="white" fill-opacity="0.04"/>
</svg>
