<svg width="87" height="17" viewBox="0 0 87 17" fill="none" xmlns="http://www.w3.org/2000/svg">
<g clip-path="url(#clip0_70_228)">
<g clip-path="url(#clip1_70_228)">
<path d="M57.856 14.6831C59.0092 14.7084 60.1251 14.2658 60.9589 13.4525L62.4986 15.1441C61.4813 16.2103 60.0752 17 57.8835 17C54.1286 17 51.7051 14.4586 51.7051 11.0194C51.69 10.2485 51.824 9.48223 52.0994 8.7643C52.3748 8.04637 52.7862 7.39091 53.3101 6.83542C53.834 6.27993 54.46 5.83531 55.1524 5.52701C55.8449 5.21871 56.5901 5.05277 57.3454 5.0387H57.5536C61.281 5.0387 63.3942 7.93282 63.2095 11.9493H54.3878C54.702 13.6169 55.8489 14.6791 57.856 14.6791V14.6831ZM60.5426 10.0212C60.3069 8.46595 59.3957 7.31953 57.5693 7.31953C56.8021 7.27379 56.0465 7.52747 55.4557 8.02915C54.8649 8.53083 54.4832 9.24297 54.3878 10.0212H60.5426Z" fill="#454545"/>
<path d="M0 14.5588L6.78325 7.52789H0.161038V5.31921H9.92546V7.57198L3.14221 14.6029H10.0158V16.8075H0V14.5588Z" fill="#454545"/>
<path d="M17.6319 14.6831C18.7851 14.7084 19.901 14.2658 20.7348 13.4525L22.2745 15.1441C21.2572 16.2103 19.8511 17 17.6594 17C13.9044 17 11.481 14.4586 11.481 11.0194C11.4659 10.2492 11.5996 9.48354 11.8745 8.76612C12.1494 8.04871 12.5601 7.3936 13.0832 6.83821C13.6062 6.28283 14.2314 5.83805 14.9229 5.52928C15.6144 5.22051 16.3588 5.05381 17.1134 5.0387H17.3216C21.049 5.0387 23.1622 7.93282 22.9776 11.9493H14.1637C14.4779 13.6169 15.6248 14.6791 17.6319 14.6791V14.6831ZM20.3185 10.0212C20.0828 8.46595 19.1716 7.31953 17.3452 7.31953C16.5779 7.27379 15.8224 7.52747 15.2316 8.02915C14.6408 8.53083 14.2591 9.24297 14.1637 10.0212H20.3185Z" fill="#454545"/>
<path d="M37.6162 11.0314C37.6162 7.35558 40.3067 5.05871 43.2682 5.05871C43.9788 5.04934 44.6828 5.19877 45.3308 5.49654C45.9788 5.7943 46.5551 6.23317 47.0192 6.78236V0H49.4152V16.7755H47.0192V15.1721C46.5638 15.7443 45.9881 16.2047 45.3347 16.519C44.6813 16.8333 43.967 16.9936 43.2446 16.988C42.4993 16.9822 41.7624 16.8267 41.0759 16.5302C40.3895 16.2338 39.767 15.8023 39.244 15.2603C38.721 14.7184 38.3077 14.0766 38.0277 13.3716C37.7477 12.6666 37.6065 11.9123 37.6122 11.1516C37.6122 11.1035 37.6122 11.0594 37.6122 11.0153L37.6162 11.0314ZM47.1528 10.9913C47.1377 10.0184 46.7466 9.09094 46.0644 8.41108C45.3823 7.73122 44.4646 7.35404 43.5112 7.3617C42.5578 7.36937 41.646 7.76127 40.9745 8.45202C40.3029 9.14276 39.9261 10.0764 39.9261 11.0494C39.9261 12.0224 40.3029 12.956 40.9745 13.6468C41.646 14.3375 42.5578 14.7294 43.5112 14.7371C44.4646 14.7448 45.3823 14.3676 46.0644 13.6877C46.7466 13.0079 47.1377 12.0804 47.1528 11.1075V10.9913Z" fill="#454545"/>
<path d="M64.7611 14.3384L66.9293 13.188C67.2169 13.7095 67.6384 14.1411 68.1485 14.4363C68.6585 14.7315 69.2378 14.8792 69.824 14.8635C71.1791 14.8635 71.8822 14.154 71.8822 13.3483C71.8822 12.4304 70.5703 12.2219 69.1327 11.9253C67.2121 11.5244 65.205 10.8671 65.205 8.50205C65.205 6.6862 66.8978 5.01065 69.5687 5.0307C71.6701 5.0307 73.2294 5.8805 74.1131 7.25942L72.1296 8.3858C71.8514 7.96548 71.4728 7.62452 71.0295 7.39515C70.5862 7.16579 70.0929 7.05561 69.5962 7.07502C68.3079 7.07502 67.652 7.72039 67.652 8.45394C67.652 9.27969 68.6928 9.51219 70.3189 9.87696C72.1728 10.2778 74.2742 10.9111 74.2742 13.3002C74.2742 14.9036 72.9191 17.0241 69.7062 17C67.3495 17 65.7038 16.034 64.7572 14.3344" fill="#454545"/>
<path d="M80.7861 11.6727L78.8851 13.7852V16.7755H76.4891V0H78.8851V10.9833L83.9715 5.28319H86.8899L82.479 10.2016L86.9998 16.7755H84.2897L80.7861 11.6727Z" fill="#454545"/>
<path d="M30.3734 5.05467C27.5258 5.05467 25.1416 6.93866 25.1416 10.0653V16.7755H27.5847V10.3619C27.5847 8.47792 28.6452 7.35153 30.4559 7.35153C32.2666 7.35153 33.17 8.47792 33.17 10.3619V16.7755H35.6012V10.0613C35.6012 6.93465 33.2171 5.05066 30.3695 5.05066" fill="#454545"/>
</g>
</g>
<defs>
<clipPath id="clip0_70_228">
<rect width="87" height="17" fill="white"/>
</clipPath>
<clipPath id="clip1_70_228">
<rect width="87" height="17" fill="white"/>
</clipPath>
</defs>
</svg>
