<svg width="143" height="13" viewBox="0 0 143 13" fill="none" xmlns="http://www.w3.org/2000/svg">
<g clip-path="url(#clip0_70_249)">
<g clip-path="url(#clip1_70_249)">
<path d="M27.5985 12.198C27.5985 12.1015 27.5985 11.9566 27.5985 11.86C27.544 11.86 24.0014 12.0532 22.2573 12.0532C19.9682 12.0532 16.6981 12.0049 16.6981 12.0049L1.65552 11.9083C1.65552 11.86 1.65552 11.6669 1.65552 11.6186L16.7526 11.5703C16.7526 11.5703 20.0227 11.6186 22.3118 11.6186C24.0559 11.6186 27.544 11.6186 27.5985 11.6186C27.5985 11.4737 27.544 11.2323 27.544 11.0391C27.4895 11.0391 24.0014 11.2806 22.3118 11.2806C20.0227 11.2806 16.7526 11.1357 16.7526 11.1357H12.8829L7.75974 10.9908H1.71002C1.71002 10.9426 1.76453 10.7494 1.76453 10.7011C1.98253 10.7494 2.14604 10.7977 2.90907 10.7977C3.8901 10.7977 4.32613 10.6045 4.32613 10.6045C4.32613 10.6045 5.03465 10.7977 5.96116 10.7977C6.39719 10.7977 7.37827 10.4114 7.97775 10.5563C8.95883 10.7977 9.3403 10.4114 9.3403 10.4114C9.3403 10.4114 9.55831 10.6528 9.99435 10.7494C10.3214 10.7977 10.7573 10.6045 10.7573 10.6045C10.7573 10.6045 11.3024 10.9426 12.8829 10.9426C14.7905 10.9426 15.3355 10.0251 15.3355 10.0251H15.39C15.39 10.0251 15.3355 10.2665 15.4445 10.4597C15.6625 10.846 16.2621 10.8943 16.2621 10.8943C16.2076 9.83194 16.6981 9.10762 16.6981 9.10762H16.7526L16.6436 9.39731C16.4256 10.1699 16.8071 10.846 16.8071 10.846L16.9706 10.7494C16.9706 10.7494 16.8071 10.2665 16.9706 9.59046C17.1341 8.91446 17.4066 8.57641 17.4066 8.57641H17.5156C17.5156 8.57641 17.3521 9.10762 17.3521 9.49389C17.3521 9.83194 17.5701 10.6528 18.2787 10.8943C18.8237 11.0874 19.2597 10.6528 19.2597 10.6528C19.2597 10.6528 20.4587 10.9426 21.4398 10.9426C23.7834 10.9426 24.3284 10.6045 24.3284 10.6045C24.3284 10.6045 24.4919 10.846 25.6909 10.846C26.3994 10.846 26.9445 10.7977 27.2715 10.7494C27.3805 10.7494 27.435 10.7494 27.4895 10.7011C27.4895 10.5079 27.435 10.3631 27.3805 10.1699C26.7265 6.93462 24.6009 4.13392 21.6578 2.34726L21.4943 2.78186C24.3829 4.47194 26.5084 7.12778 27.108 10.2665C26.781 10.3631 26.2905 10.5079 25.6909 10.5079C24.7644 10.5079 24.5464 10.2665 24.5464 10.2665C24.5464 10.2665 24.2194 10.4597 23.6198 10.4597C23.0749 10.4597 22.6933 10.1216 22.6933 10.1216C22.6933 10.1216 22.1483 10.6045 21.1673 10.6045C20.0227 10.6045 19.4232 9.97678 19.2052 9.68704C18.9872 9.39731 18.8782 9.15588 18.8782 9.15588H18.8237C18.8237 9.25246 18.8782 9.39731 18.9327 9.5422C19.0962 9.92852 19.2052 10.0251 19.2597 10.1216C19.3142 10.1699 19.3687 10.3148 19.2052 10.3631C19.0962 10.4114 19.0417 10.3148 18.9872 10.2665C18.9327 10.1699 18.7147 9.92852 18.6056 9.5422C18.4422 9.10762 18.4422 8.81788 18.3877 8.57641H18.2787C18.2242 8.76957 18.2242 9.10762 18.2242 9.49389C18.2787 9.92852 18.3877 10.2182 18.4422 10.3148C18.4422 10.3148 18.4967 10.3631 18.4967 10.4114C18.4967 10.5563 18.3877 10.6045 18.2787 10.6045C18.1697 10.6045 18.0607 10.5079 18.0062 10.4114C17.5156 9.68704 18.1152 8.23841 18.2787 7.80383C18.5511 7.17609 18.6056 6.5483 18.6056 6.5483C18.6056 6.5483 18.9327 6.06546 19.0962 5.72741C19.3142 5.29284 19.4777 4.90653 19.6412 4.76167C19.8592 4.56852 20.2407 4.08564 20.6222 3.45789C20.6767 3.36131 21.0038 2.68528 21.0583 2.54041C21.1128 2.44384 21.1673 2.29898 21.2218 2.2024C21.3853 1.62294 21.5488 0.946906 21.5488 0.850333C21.5488 0.705469 21.2763 0.60889 21.2763 0.60889C21.2763 0.60889 21.0038 0.512314 20.8403 0.512314C20.7312 0.512314 20.6222 0.60889 20.5132 0.65718C20.3497 0.705469 20.2952 0.65718 20.2952 0.65718C20.2952 0.65718 20.0772 0.560601 19.9682 0.60889C19.8592 0.60889 19.7502 0.753753 19.6412 0.753753C19.4777 0.802043 19.4232 0.802043 19.4232 0.802043C19.4232 0.802043 19.2597 0.753753 19.1507 0.753753C19.0417 0.802043 18.9327 0.850333 18.7147 0.995196C17.1886 0.512314 15.608 0.270874 13.973 0.270874C6.5062 0.270874 0.401973 5.58256 0.292969 12.198C0.292969 12.2463 0.292969 12.536 0.292969 12.536H27.5985C27.5985 12.536 27.5985 12.2463 27.5985 12.198ZM10.2124 9.78362C10.1579 9.78362 10.2124 9.73536 10.1579 9.73536C10.5394 8.67299 11.4114 6.50004 12.8284 4.85824C12.992 4.90653 13.101 5.00311 13.2645 5.0514C12.2289 6.06546 10.8664 8.04525 10.2124 9.78362ZM11.0299 10.1216C11.3024 9.15589 12.0109 7.12778 13.537 5.19626C13.7005 5.29284 13.8095 5.34113 13.973 5.43772C12.9375 6.64488 11.6839 8.57641 11.1389 10.1699C11.0844 10.1699 11.0844 10.1216 11.0299 10.1216ZM12.1199 10.3631C12.0654 10.3631 12.1199 10.3631 12.0654 10.3631C12.2834 9.59046 12.8829 7.56236 14.3 5.58256C14.4635 5.67914 14.5725 5.72741 14.6815 5.82399C13.7005 7.12778 12.6104 8.91446 12.1199 10.3631ZM13.1555 10.3631C13.101 10.3631 13.101 10.3631 13.101 10.3631C13.319 9.63878 13.8095 7.85209 15.0085 6.06546C15.1721 6.16204 15.3355 6.25862 15.39 6.3552C14.518 7.51409 13.5915 9.05931 13.1555 10.3631ZM16.7526 7.12778C16.4801 7.12778 16.0986 7.0312 15.9896 6.83804C16.0441 7.17609 16.4801 7.46578 16.8616 7.46578C16.7526 7.46578 16.6981 7.51409 16.5891 7.51409C16.0986 7.51409 15.6625 7.12778 15.6625 6.6932C15.6625 6.64488 15.6625 6.5483 15.6625 6.50004C16.0441 6.78978 16.8616 7.17609 17.3521 6.59662V6.64488C17.2976 6.88636 17.0251 7.12778 16.7526 7.12778ZM18.2787 5.24455C18.2787 5.38941 18.1697 5.43772 18.0607 5.48599C18.0062 5.5343 17.8426 5.58256 17.8426 5.63083H17.7881C17.7881 5.63083 17.7336 5.58256 17.6791 5.58256C17.6791 5.5343 17.6791 5.5343 17.6791 5.5343V5.48599V5.38941C17.6791 5.38941 17.6246 5.29284 17.6791 5.19626C17.6791 5.0514 17.8426 4.95482 17.8426 4.95482H17.8971C17.8971 4.95482 17.8426 5.0514 17.7881 5.14797C17.7881 5.19626 17.7336 5.34113 17.7881 5.43772V5.5343L17.8426 5.58256L17.8971 5.5343C18.0062 5.48599 18.0062 5.43772 18.0062 5.43772C18.0062 5.43772 17.8971 5.34113 17.9517 5.24455C18.0062 5.14797 18.1697 5.14797 18.1697 5.14797C18.2242 5.00311 18.1697 4.90653 18.1697 4.90653L18.2787 4.95482C18.2242 4.90653 18.2787 5.0514 18.2787 5.24455ZM18.9872 1.14006C19.1507 1.09177 19.2052 0.995196 19.3687 0.946906C19.5322 0.898617 19.6412 0.946906 19.7502 0.946906C19.8592 0.946906 20.0227 0.802043 20.1317 0.802043C20.2407 0.802043 20.2952 0.850333 20.4042 0.850333C20.4587 0.946906 20.7857 0.753753 20.8403 0.753753C20.8948 0.753753 21.1128 0.753754 21.0583 0.946906C21.0038 1.09177 20.8948 1.52637 20.6767 2.10582C20.6222 2.25069 20.5132 2.44384 20.4042 2.63699C20.2952 2.83015 20.1862 3.07158 20.0227 3.26474C19.4232 4.13392 18.8237 3.94077 17.6791 4.42365C16.7526 4.80996 16.3711 5.0514 16.2621 5.19626C16.1531 5.09969 16.0986 5.09969 15.9896 5.0514C16.1531 4.90653 16.5346 4.66509 17.2976 4.32707C18.1152 3.94077 19.4777 3.45789 19.7502 3.0233C19.7502 2.97501 19.7502 2.97501 19.7502 2.92672C19.4232 3.11987 19.1507 3.21645 19.0417 3.31303C17.7336 3.89248 17.2431 4.03735 16.6436 4.32707C16.3711 4.47194 15.9351 4.66509 15.6625 4.85824C15.608 4.80996 15.499 4.76167 15.4445 4.71338C15.717 4.52023 16.0986 4.32707 16.4801 4.13392C17.0796 3.89248 17.5701 3.65104 18.9872 2.92672C19.0962 2.87843 19.8047 2.49213 20.3497 2.10582C20.3497 2.05753 20.3497 2.00924 20.4042 1.96096C19.9137 2.2024 18.3332 2.97501 18.0062 3.11987C16.6981 3.69933 16.7526 3.65104 16.1531 3.94077C15.7715 4.13392 15.39 4.32707 15.1176 4.52023C15.0631 4.47194 14.954 4.42365 14.8995 4.37536C15.2266 4.18221 15.499 3.98906 15.9351 3.7959C16.5346 3.50618 16.5891 3.45789 17.9517 2.87843C18.6056 2.5887 19.8047 1.86438 20.4587 1.52637C20.4587 1.47808 20.4587 1.47808 20.4587 1.42979C19.8047 1.76781 17.8971 2.63699 17.6246 2.78186C16.3166 3.31303 16.1531 3.36131 15.5535 3.65104C15.2266 3.7959 14.8995 3.98906 14.627 4.13392C14.5725 4.08564 14.518 4.03735 14.4635 3.98906C14.6815 3.84419 15.0631 3.60275 15.5535 3.36131C16.1531 3.07158 16.2621 3.0233 17.5701 2.44384C17.7336 2.39555 18.3877 2.05753 18.9872 1.71952C19.1507 1.62294 19.3687 1.52637 19.5322 1.42979C19.6957 1.33321 19.8047 1.23664 19.9137 1.18835L19.8592 1.14006C19.5867 1.23664 19.2052 1.42979 19.0962 1.47808C18.3877 1.81609 17.5156 2.2024 17.2431 2.29898C15.9351 2.87843 15.7715 2.92672 15.1721 3.21645C14.845 3.36131 14.4635 3.55447 14.2455 3.74762C14.191 3.69933 14.1365 3.65104 14.082 3.60275C14.3545 3.4096 14.736 3.16816 15.1721 2.97501C15.7715 2.68528 15.8806 2.63699 17.1886 2.05753C17.4066 1.96096 17.6246 1.86438 17.7881 1.76781C17.8426 1.76781 18.4422 1.47808 18.9872 1.14006ZM14.518 0.850333C15.7715 0.850333 17.0251 0.995196 18.1697 1.33321C17.9517 1.47808 17.6246 1.62294 17.1886 1.81609C15.6625 2.49213 15.499 2.54041 14.845 2.83015C14.409 3.0233 14.082 3.21645 13.8095 3.4096C13.8095 3.4096 13.537 3.07158 13.3735 2.97501C13.21 2.87843 12.8284 2.78186 12.7194 2.73357C12.5014 2.63699 12.4469 2.54041 12.1199 2.44384C11.8474 2.34726 11.6294 2.39555 11.4659 2.39555C11.3024 2.34726 11.1389 2.29898 10.8664 2.29898C10.7028 2.29898 10.4849 2.39555 10.3214 2.39555C10.1034 2.39555 9.93984 2.34726 9.77633 2.34726C9.61282 2.39555 9.3948 2.54041 9.17679 2.54041C9.01327 2.5887 8.79531 2.54041 8.68631 2.54041C8.5773 2.5887 8.30478 2.78186 8.14127 2.83015C8.03226 2.87843 7.70523 2.87843 7.75974 3.11987C7.75974 3.31302 8.25027 3.36131 8.25027 3.36131C8.25027 3.36131 10.3759 3.60275 12.4469 4.56852C12.1744 4.90653 11.8474 5.24455 11.6294 5.63083C11.4659 5.58256 11.2479 5.5343 11.1389 5.5343C10.9209 5.5343 10.7028 5.63083 10.5394 5.58256C10.2124 5.58256 10.2124 5.5343 9.83084 5.58256C9.55831 5.63083 9.55831 5.67914 9.3403 5.72741C9.17679 5.77572 9.01327 5.72741 8.74081 5.77572C8.6318 5.82399 8.41379 6.01714 8.25027 6.06546C8.14127 6.11372 7.92325 6.11372 7.75974 6.2103C7.65073 6.30688 7.65073 6.40346 7.37827 6.50004C7.21475 6.59662 7.10575 6.5483 6.94223 6.6932C6.83323 6.88636 6.83323 7.0312 6.56071 7.22436C6.23368 7.46578 6.23368 7.65894 6.28819 7.70725C6.39719 7.90041 6.88773 7.70725 6.88773 7.70725C6.88773 7.70725 8.6318 7.17609 10.7028 7.07951C10.1579 8.04525 9.72183 8.96273 9.44931 9.59046C9.3948 9.73536 9.3403 9.8802 9.28579 9.97678C9.23129 9.97678 9.23129 9.97678 9.23129 9.97678C9.12228 9.8802 9.12228 9.73536 9.17679 9.39731C9.23129 9.05931 9.55831 8.38325 9.66732 8.23841H9.55831C9.44931 8.38325 9.12228 8.91446 9.06778 9.01104C8.95883 9.2042 8.90432 9.25246 8.68631 9.68704C8.6318 9.78362 8.52279 9.97678 8.35928 9.97678C8.25027 9.97678 8.14127 9.92852 8.14127 9.83194C8.14127 9.78362 8.19577 9.68704 8.25027 9.68704C8.52279 9.30073 8.74081 8.91446 8.79531 8.72131H8.68631C8.68631 8.72131 7.92325 10.2665 6.28819 10.2665C5.74318 10.2665 5.14365 10.0251 5.14365 10.0251C5.14365 10.0251 4.38062 10.3148 3.34509 10.3148C2.52755 10.3148 2.03704 10.1699 1.81902 10.1216C2.96357 4.90653 8.03226 0.850333 14.518 0.850333Z" fill="#454545"/>
<path d="M52.3422 12.2463L52.2332 12.198C51.5792 11.9083 51.3612 11.0874 51.0342 10.3631L47.7096 2.54041H44.5484V2.78185L44.712 2.83014C44.712 2.83014 44.8755 2.87842 44.93 2.92671C45.0934 3.02328 45.2569 3.21644 45.0389 3.69932C45.0389 3.94076 44.93 4.13391 44.93 4.13391L42.3138 10.3631C42.0413 11.0391 41.8233 11.9083 41.1693 12.198L40.9513 12.2946V12.536H44.4939V12.2946L44.2214 12.198C43.8944 12.1014 43.8399 11.8117 44.1669 10.9908L44.5484 9.88018H48.3091C48.4181 10.1217 48.5271 10.4597 48.6906 10.9426C48.8541 11.4254 49.1266 12.0532 48.7451 12.2463L48.5271 12.3429V12.5843H52.3422V12.2463ZM47.7641 8.23839H45.2569L46.5105 5.14797L47.7641 8.23839Z" fill="#454545"/>
<path d="M75.3428 2.54041V2.78185L75.6153 2.87842C76.0513 3.02328 75.9968 3.94076 75.9968 4.52022V10.5562C75.9968 11.0391 75.9968 12.0532 75.6153 12.198L75.3428 12.2946V12.536H78.9395V12.2946L78.6669 12.198C78.2309 12.0532 78.2854 11.0391 78.2854 10.5562V4.52022C78.2854 3.69932 78.3944 2.975 78.6669 2.87842L78.9395 2.78185V2.54041H75.3428Z" fill="#454545"/>
<path d="M61.8252 2.54041V2.78185L62.0977 2.87842C62.5338 3.02328 62.4792 3.94076 62.4792 4.52022V10.5562C62.4792 11.0391 62.4792 12.0532 62.0977 12.198L61.8252 12.2946V12.536H65.4225V12.2946L65.15 12.198C64.7139 12.0532 64.7684 11.0391 64.7684 10.5562V4.52022C64.7684 3.69932 64.8774 2.975 65.15 2.87842L65.4225 2.78185V2.54041H61.8252Z" fill="#454545"/>
<path d="M41.606 1.67117C40.7885 0.946853 39.5349 0.560547 38.1723 0.560547H33.5397V0.801989L33.7577 0.850279C34.3572 1.09172 34.3027 2.3955 34.3027 3.36126V9.68697V9.92845C34.3027 10.6528 34.3027 11.9566 33.7577 12.1497L33.5397 12.2463V12.4877H37.7909V12.2463L37.6274 12.1497C36.8643 11.7151 36.8643 10.7493 36.8643 9.73529V7.6106L37.3003 7.7555C37.3003 7.7555 38.0088 7.99692 38.6629 7.99692C40.625 7.99692 42.7505 6.78971 42.7505 4.18216C42.7505 3.21639 42.369 2.34721 41.606 1.67117ZM37.4639 7.07945L37.0823 7.12771H36.8643V2.63694C37.1368 2.58865 37.4638 2.58865 37.8998 2.58865C38.7719 2.58865 39.4804 2.7818 39.8619 3.16811C40.2434 3.50612 40.407 3.94071 40.407 4.56846C40.407 6.06539 38.8809 6.98287 37.4639 7.07945Z" fill="#454545"/>
<path d="M99.5421 0.560515H97.6345H92.1841V0.850242L92.5111 0.946821C93.0016 1.13997 93.0016 2.2506 93.0016 2.87834V10.1216C93.0016 10.701 93.0016 11.9082 92.5111 12.1014L92.1841 12.198V12.4877H96.2719V12.198L95.9449 12.1014C95.4543 11.9082 95.4543 10.7493 95.4543 10.1216V7.75542H97.8525C97.8525 7.75542 98.8881 7.65884 99.0516 8.04516L99.1061 8.19005L99.3786 8.23832L99.5421 5.05131H99.1606L99.1061 5.24446C98.9971 5.48589 98.0705 5.58247 97.798 5.53421H95.3998C95.3998 4.47185 95.3998 3.16807 95.3998 2.58861H98.343C99.0516 2.58861 99.4331 2.73348 99.5421 3.0715L99.5961 3.26465H99.9231L100.686 0.415649C100.795 0.512226 99.8141 0.560515 99.5421 0.560515Z" fill="#454545"/>
<path d="M60.6261 9.83189L60.5716 9.88021C60.4626 9.97678 60.3536 10.025 60.3536 10.025C59.6996 10.4114 58.6095 10.8459 57.5197 10.8459C56.6477 10.8459 55.9391 10.6045 55.3396 10.1216C54.6311 9.49389 54.2496 8.47984 54.2496 7.32094C54.2496 5.48599 55.4486 4.23047 57.1927 4.23047C58.0102 4.23047 58.8275 4.47192 59.6451 4.9548L59.8631 5.09966L60.2991 5.3411V4.90651V2.9267V2.73355L59.9721 2.68526C58.882 2.44381 58.0102 2.29895 57.2472 2.29895C55.7211 2.29895 54.4131 2.78183 53.4321 3.65102C52.3965 4.56849 51.797 5.96883 51.797 7.51404C51.797 9.10757 52.342 10.4114 53.3776 11.3288C54.4131 12.2463 55.9391 12.7292 57.6832 12.7292C58.5552 12.7292 59.3725 12.5843 60.0266 12.2463H60.0811L60.1901 12.198L60.2446 12.1014L61.0077 9.78363H60.6261V9.83189Z" fill="#454545"/>
<path d="M88.4771 9.83189L88.1501 10.025C87.496 10.4114 86.406 10.8459 85.3159 10.8459C84.4438 10.8459 83.7353 10.6045 83.1357 10.1216C82.4272 9.49389 82.0456 8.47984 82.0456 7.32094C82.0456 5.48599 83.2447 4.23047 84.9889 4.23047C85.8064 4.23047 86.624 4.47192 87.4415 4.9548L88.0956 5.3411V2.9267V2.73355L87.8231 2.68526C86.733 2.44381 85.8609 2.29895 85.0979 2.29895C83.5718 2.29895 82.2637 2.78183 81.2826 3.65102C80.247 4.56849 79.6475 5.96883 79.6475 7.51404C79.6475 9.10757 80.1925 10.4114 81.2281 11.3288C82.2637 12.2463 83.7898 12.7292 85.5339 12.7292C86.406 12.7292 87.2235 12.5843 87.8776 12.2463L88.0411 12.198L88.8586 9.78363H88.4771V9.83189Z" fill="#454545"/>
<path d="M73.4346 2.5403H70.4375H66.8402V2.78174L67.1127 2.87832C67.5488 3.02318 67.4943 3.94065 67.4943 4.52011V10.5561C67.4943 11.039 67.4943 12.0531 67.1127 12.1979L66.8402 12.2945V12.5359H70.4375V12.2945L70.165 12.1979C69.7289 12.0531 69.7834 11.039 69.7834 10.5561V8.57631H71.7456C71.7456 8.57631 72.617 8.52805 72.7261 8.81773L72.7806 8.96263L72.9986 9.01089L73.1621 6.35505H72.8896L72.8351 6.49994C72.7806 6.6931 71.9636 6.78968 71.7456 6.74136H69.7289C69.7289 5.8722 69.7289 4.76155 69.7289 4.27867H72.399C72.9986 4.27867 73.3256 4.42354 73.4346 4.66498L73.4891 4.80984H73.7616L74.4157 2.44373C74.5247 2.44373 73.6526 2.5403 73.4346 2.5403Z" fill="#454545"/>
<path d="M119.652 2.54035V2.78179L119.87 2.87837C120.361 3.1681 120.415 3.60269 120.415 4.42359V9.01095C118.889 7.07942 115.51 2.49207 115.51 2.49207H112.894V2.73351L113.112 2.83008C113.603 3.11981 113.657 3.60269 113.657 4.42359V10.4113C113.657 11.2322 113.657 11.86 113.112 12.1497L112.949 12.2463V12.4877H116.274V12.2463L116.056 12.1497C115.565 12.0531 115.565 11.2322 115.565 10.4113V6.06537L118.835 10.2182C119.434 10.9908 120.415 12.1014 121.451 12.3911C122.268 12.6326 122.432 12.5843 122.432 12.5843V4.47188C122.432 3.65098 122.432 3.1681 122.977 2.87837L123.195 2.78179V2.54035H119.652Z" fill="#454545"/>
<path d="M133.06 3.989C131.97 3.02323 130.335 2.49207 128.318 2.49207H124.231V2.73351L124.449 2.78179L124.558 2.83008C125.048 2.97495 124.939 3.989 124.939 4.52017V10.5562C124.939 11.2805 124.939 11.9083 124.34 12.2463L124.176 12.3429V12.536H128.209C131.915 12.536 134.531 10.4596 134.531 7.46574C134.531 6.06537 134.041 4.85818 133.06 3.989ZM131.152 10.025C130.389 10.6527 129.354 11.0391 128.046 11.0391C127.773 11.0391 127.61 10.9908 127.283 10.9425V4.18215C127.719 4.08557 127.937 4.03728 128.318 4.03728C129.572 4.03728 130.498 4.32702 131.152 4.90647C131.806 5.48595 132.133 6.45169 132.133 7.61058C132.133 8.57637 131.752 9.44553 131.152 10.025Z" fill="#454545"/>
<path d="M110.877 10.7011V4.42364C110.877 3.69932 110.877 3.02328 111.422 2.87842L111.64 2.83014L111.477 2.54041H107.77V2.78185L107.988 2.83014C108.533 3.02328 108.479 3.7959 108.479 4.32707V9.1076C108.479 9.59044 108.479 9.83192 108.206 10.1699C107.77 10.7011 106.953 11.0391 106.081 11.0391C105.373 11.0391 104.882 10.8942 104.501 10.5562C104.01 10.1699 103.792 9.4456 103.792 8.52813V4.27878C103.792 3.69932 103.792 2.92671 104.283 2.78185L104.501 2.73356V2.54041H100.685V2.78185L100.903 2.83014C101.394 2.975 101.448 3.89248 101.394 4.6168V8.72129C101.394 9.73534 101.394 10.7494 102.321 11.6669C103.084 12.3912 104.228 12.7775 105.536 12.7775C106.462 12.7775 107.607 12.3429 108.424 11.7634V12.536H111.531V12.2946L111.313 12.2463C110.877 12.0532 110.823 11.4254 110.877 10.7011Z" fill="#454545"/>
<path d="M142.707 9.49395C142.707 10.2665 142.325 11.0392 141.617 11.6186C140.799 12.343 139.655 12.7292 138.401 12.7292C137.42 12.7292 136.493 12.5844 135.621 12.2946H135.567L135.458 12.2464V12.1498V12.1015L135.022 10.3148L134.967 10.0251L134.913 9.78369H135.185L135.567 10.1699C136.384 10.846 137.529 11.1357 138.565 11.1357C139.273 11.1357 140.309 10.7012 140.309 9.97679C140.309 9.15589 139.437 8.76963 138.292 8.28674C136.929 7.70726 135.294 6.98294 135.294 5.148C135.294 3.07161 137.475 2.34729 139.328 2.34729C140.145 2.34729 140.908 2.44387 141.617 2.68531H141.671L141.835 2.7336V2.87846V2.92675V4.18224V4.61684V4.90656L141.453 4.66512L141.072 4.47197C140.745 4.27882 139.927 3.98909 139.219 3.98909C138.946 3.98909 138.347 4.03738 137.965 4.37539C137.802 4.52026 137.693 4.71341 137.693 5.00314C137.693 5.72747 138.674 6.16205 139.709 6.59663C141.017 7.1761 142.707 7.90042 142.707 9.49395Z" fill="#454545"/>
</g>
</g>
<defs>
<clipPath id="clip0_70_249">
<rect width="143" height="13" fill="white"/>
</clipPath>
<clipPath id="clip1_70_249">
<rect width="143" height="13" fill="white"/>
</clipPath>
</defs>
</svg>
