<svg width="120" height="23" viewBox="0 0 120 23" fill="none" xmlns="http://www.w3.org/2000/svg">
<g clip-path="url(#clip0_70_274)">
<g clip-path="url(#clip1_70_274)">
<path fill-rule="evenodd" clip-rule="evenodd" d="M10.3519 15.6963L13.6927 19.1099L10.9058 22.0783C10.0021 23.0408 8.53653 23.0408 7.6328 22.0783L0.677796 14.6707C-0.225932 13.7079 -0.225932 12.1473 0.677796 11.1848C1.58181 10.2223 3.04705 10.2223 3.95077 11.1848L9.26929 16.8494L10.3519 15.6963ZM11.2203 14.7714L14.1793 11.6198L17.452 15.1058L14.7273 18.0079L11.2203 14.7714Z" fill="#454545"/>
<path fill-rule="evenodd" clip-rule="evenodd" d="M24.6085 17.9423L21.1213 14.6845L29.316 5.95664C30.2197 4.99411 31.685 4.99411 32.589 5.95664C33.4927 6.91917 33.4927 8.47974 32.589 9.44257L24.6085 17.9423ZM23.524 19.0974L20.7254 22.0781C19.8214 23.0406 18.3561 23.0406 17.4524 22.0781L5.58765 9.44134C4.68392 8.4785 4.68392 6.91793 5.58765 5.9554C6.49138 4.99257 7.95661 4.99257 8.86063 5.9554L19.0889 16.8492L20.2393 15.6239L23.524 19.0974Z" fill="#454545"/>
<path fill-rule="evenodd" clip-rule="evenodd" d="M19.5801 13.8852L22.8376 10.3831L28.9086 16.8491L34.226 11.1858C35.13 10.2233 36.5952 10.2233 37.499 11.1858C38.4027 12.1486 38.4027 13.7092 37.499 14.6717L30.5451 22.078C29.6414 23.0406 28.1762 23.0406 27.2724 22.078L19.5801 13.8852ZM18.2306 12.4479L10.4976 4.21178C9.59389 3.24925 9.59389 1.68869 10.4976 0.726157C11.4016 -0.236681 12.8669 -0.236681 13.7706 0.726157L21.5116 8.97085L18.2306 12.4479Z" fill="#454545"/>
<path fill-rule="evenodd" clip-rule="evenodd" d="M27.6792 0.727391C26.7755 -0.235139 25.3103 -0.235139 24.4063 0.727391L14.1791 11.6199L17.4521 15.1059L27.6792 4.21333C28.583 3.25049 28.583 1.68992 27.6792 0.727391Z" fill="#454545"/>
<path fill-rule="evenodd" clip-rule="evenodd" d="M50.1576 2.42966H47.3116V20.235H57.7393V17.5461H50.1576V2.42966ZM63.8987 7.78339C65.6291 7.78339 66.7902 8.53436 67.4277 9.45491L67.5643 8.02564H70.0233V20.235H67.5643L67.4277 18.8058C66.7902 19.7263 65.6291 20.4773 63.8987 20.4773C60.7795 20.4773 58.6621 17.7883 58.6621 14.1303C58.6621 10.4481 60.7795 7.78339 63.8987 7.78339ZM64.4907 10.3512C62.7148 10.3512 61.4398 11.829 61.4398 14.1303C61.4398 16.4317 62.7148 17.9094 64.4907 17.9094C65.8567 17.9094 66.6764 17.1342 67.2911 16.0926V12.1681C66.6764 11.1264 65.8567 10.3512 64.4907 10.3512ZM76.9112 3.93161H74.1791V8.02564H72.0161V10.4966H74.1791V15.923C74.1791 18.8784 75.8411 20.4773 78.4594 20.4773C79.5978 20.4773 80.4402 20.1381 81.0094 19.7505L80.2808 17.4734C79.9393 17.6914 79.4384 17.861 78.7099 17.861C77.6398 17.861 76.9112 17.1342 76.9112 15.8988V10.4966H80.3719V8.02564H76.9112V3.93161ZM86.3264 3.93161H83.5942V8.02564H81.4313V10.4966H83.5942V15.923C83.5942 18.8784 85.2563 20.4773 87.8746 20.4773C89.013 20.4773 89.8554 20.1381 90.4246 19.7505L89.696 17.4734C89.3545 17.6914 88.8536 17.861 88.125 17.861C87.055 17.861 86.3264 17.1342 86.3264 15.8988V10.4966H89.7871V8.02564H86.3264V3.93161ZM94.9902 8.02564H92.2581V20.235H94.9902V8.02564ZM93.6241 2.33276C92.6679 2.33276 91.9393 3.08374 91.9393 4.12541C91.9393 5.16709 92.6679 5.91806 93.6241 5.91806C94.6032 5.91806 95.3317 5.16709 95.3317 4.12541C95.3317 3.08374 94.6032 2.33276 93.6241 2.33276ZM103.244 7.78339C99.7152 7.78339 97.3701 10.4481 97.3701 14.1303C97.3701 17.7883 99.738 20.4773 103.267 20.4773C105.339 20.4773 106.91 19.4841 107.934 17.7883L105.976 16.1652C105.43 17.1342 104.542 17.9337 103.29 17.9337C101.263 17.9337 100.148 16.2621 100.148 14.1303C100.148 11.9743 101.218 10.327 103.267 10.327C104.542 10.327 105.384 11.1022 105.908 12.0712L107.889 10.4724C106.864 8.77661 105.339 7.78339 103.244 7.78339ZM114.617 7.78339C118.146 7.78339 119.877 10.5935 119.877 14.0092V15.0267H111.771C111.84 16.9647 112.933 18.0306 114.845 18.0306C116.188 18.0306 117.167 17.4007 117.691 16.6255L119.581 18.2728C118.442 19.7263 116.94 20.4773 114.822 20.4773C111.271 20.4773 108.994 17.8125 108.994 14.1546C108.994 10.4724 111.316 7.78339 114.617 7.78339ZM114.572 10.109C112.955 10.109 111.863 11.2476 111.771 12.9433H117.19C117.122 11.2718 116.211 10.109 114.572 10.109Z" fill="#454545"/>
</g>
</g>
<defs>
<clipPath id="clip0_70_274">
<rect width="120" height="22.8" fill="white"/>
</clipPath>
<clipPath id="clip1_70_274">
<rect width="120" height="22.8" fill="white"/>
</clipPath>
</defs>
</svg>
